# xmcd
# 
# Track frame offsets:
#     150
#     9888
#     24467
#     38712
#     51898
#     66373
#     74746
#     87765
#     97134
#     108537
#     118052
#     133124
#     144694
#     154453
#     169074
#     182237
#     195179
#     208884
#     220774
#     237638
#     254001
#     269061
# 
# Disc length: 3726
# 
# Revision: 2
# Processed by: cddbd v1.5.2PL0 Copyright (c) Steve Scherf et al.
# Submitted via: fre:ac v1.0.31
# 
DISCID=5b0e8c16
DTITLE=Glen Campbell - Bobbie Gentry and Glen Campbell - Anne Murray and Glen Campbell
DYEAR=1968
DGENRE=Country
TTITLE0=Bobbie Gentry and Glen Campbell - Less Of Me
TTITLE1=Bobbie Gentry and Glen Campbell - Little Green Apples
TTITLE2=Bobbie Gentry and Glen Campbell - Gentle On My Mind
TTITLE3=Bobbie Gentry and Glen Campbell - Heart To Heart Talk
TTITLE4=Bobbie Gentry and Glen Campbell - My Elusive Dreams
TTITLE5=Bobbie Gentry and Glen Campbell - (It's Only Your) Imagination
TTITLE6=Bobbie Gentry and Glen Campbell - Mornin' Glory
TTITLE7=Bobbie Gentry and Glen Campbell - Terrible Tangled Web
TTITLE8=Bobbie Gentry and Glen Campbell - Sunday Mornin'
TTITLE9=Bobbie Gentry and Glen Campbell - Let It Be Me
TTITLE10=Bobbie Gentry and Glen Campbell - Scarborough Fair - Canticle
TTITLE11=Bobbie Gentry and Glen Campbell - All I Have To Do Is Dream
TTITLE12=Anne Murray and Glen Campbell - You're Easy To Love
TTITLE13=Anne Murray and Glen Campbell - I Say A Little Prayer - By The Time I Get To Phoenix
TTITLE14=Anne Murray and Glen Campbell - We All Pull The Load
TTITLE15=Anne Murray and Glen Campbell - Canadian Sunset
TTITLE16=Anne Murray and Glen Campbell - Bring Back The Love
TTITLE17=Anne Murray and Glen Campbell - United We Stand
TTITLE18=Anne Murray and Glen Campbell - Love Story (You and Me)
TTITLE19=Anne Murray and Glen Campbell - Ease Your Pain
TTITLE20=Anne Murray and Glen Campbell - Let Me Be The One
TTITLE21=Anne Murray and Glen Campbell - My Ecstasy
EXTD=
EXTT0=
EXTT1=
EXTT2=
EXTT3=
EXTT4=
EXTT5=
EXTT6=
EXTT7=
EXTT8=
EXTT9=
EXTT10=
EXTT11=
EXTT12=
EXTT13=
EXTT14=
EXTT15=
EXTT16=
EXTT17=
EXTT18=
EXTT19=
EXTT20=
EXTT21=
PLAYORDER=
